<mxfile host="app.diagrams.net" agent="Mozilla/5.0 (Windows NT 10.0; Win64; x64) AppleWebKit/537.36 (KHTML, like Gecko) Chrome/136.0.0.0 Safari/537.36 Edg/136.0.0.0" version="27.0.8">
  <diagram name="Página-1" id="79DvbHmb-W6rpRyTyMd0">
    <mxGraphModel grid="1" page="1" gridSize="10" guides="1" tooltips="1" connect="1" arrows="1" fold="1" pageScale="1" pageWidth="827" pageHeight="1169" math="0" shadow="0">
      <root>
        <mxCell id="0" />
        <mxCell id="1" parent="0" />
        <mxCell id="ki4IDgjwAI7xKQvNzDYT-7" value="" style="shape=cube;whiteSpace=wrap;html=1;boundedLbl=1;backgroundOutline=1;darkOpacity=0.05;darkOpacity2=0.1;" vertex="1" parent="1">
          <mxGeometry x="30" y="210" width="190" height="90" as="geometry" />
        </mxCell>
        <mxCell id="ki4IDgjwAI7xKQvNzDYT-1" value="" style="shape=cylinder3;whiteSpace=wrap;html=1;boundedLbl=1;backgroundOutline=1;size=15;" vertex="1" parent="1">
          <mxGeometry x="60" y="251" width="60" height="40" as="geometry" />
        </mxCell>
        <mxCell id="ki4IDgjwAI7xKQvNzDYT-2" value="" style="shape=cylinder3;whiteSpace=wrap;html=1;boundedLbl=1;backgroundOutline=1;size=15;" vertex="1" parent="1">
          <mxGeometry x="140" y="256" width="60" height="40" as="geometry" />
        </mxCell>
        <mxCell id="ki4IDgjwAI7xKQvNzDYT-8" value="Usuarios" style="text;align=center;fontStyle=1;verticalAlign=middle;spacingLeft=3;spacingRight=3;strokeColor=none;rotatable=0;points=[[0,0.5],[1,0.5]];portConstraint=eastwest;html=1;" vertex="1" parent="1">
          <mxGeometry x="130" y="256" width="80" height="26" as="geometry" />
        </mxCell>
        <mxCell id="ki4IDgjwAI7xKQvNzDYT-9" value="Turnos" style="text;align=center;fontStyle=1;verticalAlign=middle;spacingLeft=3;spacingRight=3;strokeColor=none;rotatable=0;points=[[0,0.5],[1,0.5]];portConstraint=eastwest;html=1;" vertex="1" parent="1">
          <mxGeometry x="50" y="251" width="80" height="26" as="geometry" />
        </mxCell>
        <mxCell id="ki4IDgjwAI7xKQvNzDYT-10" value="" style="shape=cube;whiteSpace=wrap;html=1;boundedLbl=1;backgroundOutline=1;darkOpacity=0.05;darkOpacity2=0.1;" vertex="1" parent="1">
          <mxGeometry x="160" y="470" width="160" height="80" as="geometry" />
        </mxCell>
        <mxCell id="ki4IDgjwAI7xKQvNzDYT-11" value="Totem De atención" style="text;align=center;fontStyle=1;verticalAlign=middle;spacingLeft=3;spacingRight=3;strokeColor=none;rotatable=0;points=[[0,0.5],[1,0.5]];portConstraint=eastwest;html=1;" vertex="1" parent="1">
          <mxGeometry x="182.5" y="490" width="125" height="20" as="geometry" />
        </mxCell>
        <mxCell id="ki4IDgjwAI7xKQvNzDYT-12" value="" style="shape=cube;whiteSpace=wrap;html=1;boundedLbl=1;backgroundOutline=1;darkOpacity=0.05;darkOpacity2=0.1;" vertex="1" parent="1">
          <mxGeometry x="280" y="210" width="300" height="160" as="geometry" />
        </mxCell>
        <mxCell id="ki4IDgjwAI7xKQvNzDYT-13" value="Servidor Local" style="text;align=center;fontStyle=1;verticalAlign=middle;spacingLeft=3;spacingRight=3;strokeColor=none;rotatable=0;points=[[0,0.5],[1,0.5]];portConstraint=eastwest;html=1;" vertex="1" parent="1">
          <mxGeometry x="390" y="230" width="80" height="26" as="geometry" />
        </mxCell>
        <mxCell id="ki4IDgjwAI7xKQvNzDYT-14" value="" style="curved=1;endArrow=classic;html=1;rounded=0;exitX=0.5;exitY=1;exitDx=0;exitDy=0;entryX=1;entryY=0.5;entryDx=0;entryDy=0;" edge="1" parent="1" source="ki4IDgjwAI7xKQvNzDYT-15" target="ki4IDgjwAI7xKQvNzDYT-16">
          <mxGeometry width="50" height="50" relative="1" as="geometry">
            <mxPoint x="390" y="540" as="sourcePoint" />
            <mxPoint x="310" y="380" as="targetPoint" />
            <Array as="points">
              <mxPoint x="380" y="380" />
            </Array>
          </mxGeometry>
        </mxCell>
        <mxCell id="ki4IDgjwAI7xKQvNzDYT-15" value="Controlador de Turnos" style="rounded=1;whiteSpace=wrap;html=1;" vertex="1" parent="1">
          <mxGeometry x="310" y="256" width="140" height="30" as="geometry" />
        </mxCell>
        <mxCell id="ki4IDgjwAI7xKQvNzDYT-16" value="Usuario" style="rounded=1;whiteSpace=wrap;html=1;" vertex="1" parent="1">
          <mxGeometry x="200" y="510" width="90" height="30" as="geometry" />
        </mxCell>
        <mxCell id="ki4IDgjwAI7xKQvNzDYT-17" value="" style="ellipse;whiteSpace=wrap;html=1;aspect=fixed;" vertex="1" parent="1">
          <mxGeometry x="230" y="110" width="20" height="20" as="geometry" />
        </mxCell>
        <mxCell id="ki4IDgjwAI7xKQvNzDYT-19" value="Adminsitrador del sistema" style="text;align=center;fontStyle=1;verticalAlign=middle;spacingLeft=3;spacingRight=3;strokeColor=none;rotatable=0;points=[[0,0.5],[1,0.5]];portConstraint=eastwest;html=1;" vertex="1" parent="1">
          <mxGeometry x="200" y="90" width="80" height="26" as="geometry" />
        </mxCell>
        <mxCell id="ki4IDgjwAI7xKQvNzDYT-20" value="" style="curved=1;endArrow=classic;html=1;rounded=0;exitX=0.5;exitY=1;exitDx=0;exitDy=0;entryX=0.25;entryY=0;entryDx=0;entryDy=0;" edge="1" parent="1" source="ki4IDgjwAI7xKQvNzDYT-17" target="ki4IDgjwAI7xKQvNzDYT-15">
          <mxGeometry width="50" height="50" relative="1" as="geometry">
            <mxPoint x="170" y="150" as="sourcePoint" />
            <mxPoint x="360" y="180" as="targetPoint" />
            <Array as="points">
              <mxPoint x="280" y="200" />
            </Array>
          </mxGeometry>
        </mxCell>
        <mxCell id="ki4IDgjwAI7xKQvNzDYT-21" value="" style="curved=1;endArrow=classic;html=1;rounded=0;exitX=0;exitY=1;exitDx=0;exitDy=0;entryX=0.538;entryY=-0.077;entryDx=0;entryDy=0;entryPerimeter=0;" edge="1" parent="1" source="ki4IDgjwAI7xKQvNzDYT-17" target="ki4IDgjwAI7xKQvNzDYT-8">
          <mxGeometry width="50" height="50" relative="1" as="geometry">
            <mxPoint x="180" y="140" as="sourcePoint" />
            <mxPoint x="70" y="190" as="targetPoint" />
            <Array as="points" />
          </mxGeometry>
        </mxCell>
        <mxCell id="ki4IDgjwAI7xKQvNzDYT-22" value="" style="curved=1;endArrow=classic;html=1;rounded=0;entryX=0.488;entryY=-0.077;entryDx=0;entryDy=0;entryPerimeter=0;exitX=0;exitY=0.5;exitDx=0;exitDy=0;" edge="1" parent="1" source="ki4IDgjwAI7xKQvNzDYT-17" target="ki4IDgjwAI7xKQvNzDYT-9">
          <mxGeometry width="50" height="50" relative="1" as="geometry">
            <mxPoint x="200" y="130" as="sourcePoint" />
            <mxPoint x="70" y="80" as="targetPoint" />
            <Array as="points">
              <mxPoint x="170" y="170" />
            </Array>
          </mxGeometry>
        </mxCell>
        <mxCell id="ki4IDgjwAI7xKQvNzDYT-23" value="Notificador de turnos" style="rounded=1;whiteSpace=wrap;html=1;" vertex="1" parent="1">
          <mxGeometry x="430" y="320" width="120" height="30" as="geometry" />
        </mxCell>
        <mxCell id="ki4IDgjwAI7xKQvNzDYT-24" value="" style="curved=1;endArrow=classic;html=1;rounded=0;exitX=0.75;exitY=1;exitDx=0;exitDy=0;entryX=0.25;entryY=0;entryDx=0;entryDy=0;" edge="1" parent="1" source="ki4IDgjwAI7xKQvNzDYT-15" target="ki4IDgjwAI7xKQvNzDYT-23">
          <mxGeometry width="50" height="50" relative="1" as="geometry">
            <mxPoint x="460" y="470" as="sourcePoint" />
            <mxPoint x="510" y="420" as="targetPoint" />
            <Array as="points">
              <mxPoint x="440" y="300" />
            </Array>
          </mxGeometry>
        </mxCell>
        <mxCell id="ki4IDgjwAI7xKQvNzDYT-25" value="" style="shape=cube;whiteSpace=wrap;html=1;boundedLbl=1;backgroundOutline=1;darkOpacity=0.05;darkOpacity2=0.1;" vertex="1" parent="1">
          <mxGeometry x="370" y="420" width="160" height="80" as="geometry" />
        </mxCell>
        <mxCell id="ki4IDgjwAI7xKQvNzDYT-27" value="Altavoz" style="text;align=center;fontStyle=1;verticalAlign=middle;spacingLeft=3;spacingRight=3;strokeColor=none;rotatable=0;points=[[0,0.5],[1,0.5]];portConstraint=eastwest;html=1;" vertex="1" parent="1">
          <mxGeometry x="405" y="440" width="80" height="26" as="geometry" />
        </mxCell>
        <mxCell id="ki4IDgjwAI7xKQvNzDYT-28" value="" style="shape=cube;whiteSpace=wrap;html=1;boundedLbl=1;backgroundOutline=1;darkOpacity=0.05;darkOpacity2=0.1;" vertex="1" parent="1">
          <mxGeometry x="540" y="420" width="190" height="80" as="geometry" />
        </mxCell>
        <mxCell id="ki4IDgjwAI7xKQvNzDYT-32" value="Pantalla" style="text;align=center;fontStyle=1;verticalAlign=middle;spacingLeft=3;spacingRight=3;strokeColor=none;rotatable=0;points=[[0,0.5],[1,0.5]];portConstraint=eastwest;html=1;" vertex="1" parent="1">
          <mxGeometry x="595" y="440" width="80" height="26" as="geometry" />
        </mxCell>
        <mxCell id="ki4IDgjwAI7xKQvNzDYT-33" value="NotificarPorAltavoz" style="rounded=1;whiteSpace=wrap;html=1;" vertex="1" parent="1">
          <mxGeometry x="400" y="460" width="120" height="30" as="geometry" />
        </mxCell>
        <mxCell id="ki4IDgjwAI7xKQvNzDYT-34" value="NotificarPorPantalla" style="rounded=1;whiteSpace=wrap;html=1;" vertex="1" parent="1">
          <mxGeometry x="580" y="460" width="110" height="30" as="geometry" />
        </mxCell>
        <mxCell id="ki4IDgjwAI7xKQvNzDYT-35" value="" style="curved=1;endArrow=classic;html=1;rounded=0;exitX=0.75;exitY=1;exitDx=0;exitDy=0;entryX=0.25;entryY=0;entryDx=0;entryDy=0;" edge="1" parent="1" source="ki4IDgjwAI7xKQvNzDYT-23" target="ki4IDgjwAI7xKQvNzDYT-34">
          <mxGeometry width="50" height="50" relative="1" as="geometry">
            <mxPoint x="600" y="380" as="sourcePoint" />
            <mxPoint x="650" y="330" as="targetPoint" />
            <Array as="points">
              <mxPoint x="560" y="380" />
            </Array>
          </mxGeometry>
        </mxCell>
        <mxCell id="ki4IDgjwAI7xKQvNzDYT-36" value="" style="curved=1;endArrow=classic;html=1;rounded=0;exitX=0.25;exitY=1;exitDx=0;exitDy=0;entryX=0.75;entryY=0;entryDx=0;entryDy=0;" edge="1" parent="1" source="ki4IDgjwAI7xKQvNzDYT-23" target="ki4IDgjwAI7xKQvNzDYT-33">
          <mxGeometry width="50" height="50" relative="1" as="geometry">
            <mxPoint x="600" y="380" as="sourcePoint" />
            <mxPoint x="650" y="330" as="targetPoint" />
            <Array as="points">
              <mxPoint x="470" y="370" />
            </Array>
          </mxGeometry>
        </mxCell>
        <mxCell id="ki4IDgjwAI7xKQvNzDYT-39" value="Base De Datos" style="text;align=center;fontStyle=1;verticalAlign=middle;spacingLeft=3;spacingRight=3;strokeColor=none;rotatable=0;points=[[0,0.5],[1,0.5]];portConstraint=eastwest;html=1;" vertex="1" parent="1">
          <mxGeometry x="90" y="225" width="80" height="26" as="geometry" />
        </mxCell>
      </root>
    </mxGraphModel>
  </diagram>
</mxfile>
